<svg viewBox="0 0 16 16" xmlns="http://www.w3.org/2000/svg"><path d="m4.4444444 0a1.7777778 1.7777778 0 0 0 -1.7777777 1.7777778v3.5555552a1.7777778 1.7777778 0 0 1 -1.7777778 1.777778h-.8888889v1.777778h.8888889a1.7777778 1.7777778 0 0 1 1.7777778 1.777778v3.555555a1.7777778 1.7777778 0 0 0 1.7777777 1.777778h1.7777778v-1.777778h-1.7777778v-4.444444a1.7777778 1.7777778 0 0 0 -1.7777777-1.777778 1.7777778 1.7777778 0 0 0 1.7777777-1.777778v-4.4444442h1.7777778v-1.7777778m5.3333338 0a1.7777778 1.7777778 0 0 1 1.777777 1.7777778v3.5555552a1.7777778 1.7777778 0 0 0 1.777778 1.777778h.888889v1.777778h-.888889a1.7777778 1.7777778 0 0 0 -1.777778 1.777778v3.555555a1.7777778 1.7777778 0 0 1 -1.777777 1.777778h-1.777778v-1.777778h1.777778v-4.444444a1.7777778 1.7777778 0 0 1 1.777777-1.777778 1.7777778 1.7777778 0 0 1 -1.777777-1.777778v-4.4444442h-1.777778v-1.7777778z" fill="#4d4d4d"/></svg>